<?xml version="1.0" encoding="UTF-8"?>
<svg enable-background="new 0 0 512 512" version="1.1" viewBox="0 0 512 512" xml:space="preserve" xmlns="http://www.w3.org/2000/svg">
		<circle cx="256" cy="256" r="256" fill="#36B294"/>
	
		<path d="m330.86 11.151c-30.329 10.59 0.847 24.906-18.865 34.182-22.667 10.667-22.299 24.846-26.667 29.334l63.667 21.71s71.041 3.81 111.2 5.249c-32.14-42.446-77.195-74.554-129.33-90.475z" fill="#52C883"/>
	
		<path d="m460.2 101.63c-15.256-20.147-33.5-37.867-53.951-52.731-18.744 3.355-47.744-9.895-62.994-2.645-8.302 3.947-11.75 13.75-11.75 13.75s44.184 23.668 76.728 39.374c18.114 0.866 37.143 1.721 51.967 2.252z" fill="#36B294"/>
	
		<path d="m57.174 94.793c1.256 0.539 2.615 0.973 4.159 1.207 22 3.333 166.46-16.509 166.46-16.509 2.202-14.825 1.536-23.332-13.131-30.078-14.666-6.746-13.333-18.746-24.666-24.08-4.208-1.98-15.497-4.694-28.293-7.326-41.154 16.321-77.073 42.961-104.53 76.786z" fill="#52C883"/>
	
		<path d="m58.435 93.337c3.098 0.143 6.87-0.051 11.565-0.671 35.333-4.666 112.35-37.766 112.35-37.766-9.548-4.669-12.852-16.983-23.852-15.15-13.589 2.265-33.264 5.211-44.571 3.462-20.859 13.943-39.576 30.815-55.494 50.125z" fill="#36B294"/>
	
		<path d="M12.344,334.592C45.52,437.516,142.041,512,256,512s210.48-74.484,243.656-177.408H12.344z" fill="#B3F4EF"/>
	
		<polygon points="287.72 336 284.25 183.74 279.96 80" fill="#745154"/>
	
		<path d="m321.33 68c-16.664 8.749-37.131-5.333-37.131 11.491l0.05 104.25-0.414 152.46 53.12 19.798-16.958 20h112l68.623-44.341c7.389-23.913 11.377-49.32 11.377-75.659 0-69.407-27.664-132.32-72.514-178.43-34.422-8.082-95.581-21.418-118.15-9.568z" fill="#745154"/>
	
		<path d="m439.49 77.568c-34.422-8.082-87.486-40.068-111.49-21.568-23.132 17.831-43.798 6.667-43.798 23.491v1.08c4.256 11.944 12.54 23.88 21.798 21.429 17-4.5 14.561-21.835 27-26.5 16-6 16 17 27 23.378 11.964 6.937-19 70.122-11 75.477 11.341 7.591 23.223-22.505 38.5-36.355s27.487-4.467 39 0c21.905 8.5 21.905-15 47.598-15.909-9.911-16.093-21.501-31.044-34.612-44.523z" fill="#86646A"/>
	
		<polyline points="283.84 336.2 293.33 356 320 376" fill="#745154"/>
	
		<path d="M512,256c0-7.431-0.381-14.77-1.002-22.04L496,232c-19,0-32.091-24-48-24    c-27.333,0-36,42-59.794,37.398c-6.986-1.351-13.972-4.55-20.841-8.398c-16.849-9.44-52.365,31-79.648,31l-3.736,15.394    l-0.143,52.808L336.958,356l-11.361,13.398L340,376h92l68.623-44.341C508.012,307.746,512,282.339,512,256z" fill="#674447"/>
		
			<polygon points="224.28 336 227.75 183.74 232.04 80" fill="#745154"/>
		
			<path d="M184,56c20.667,14.667,43.798,5,43.798,23.491l-0.05,104.25L228.162,336l93.172,23.333     L234.666,376H80l-68.623-44.341C3.988,307.746,0,282.339,0,256c0-69.407,27.664-132.32,72.514-178.432     C106.936,69.486,154.738,35.233,184,56z" fill="#745154"/>
	
		<path d="m228.16 336-0.209-77.118-3.953-2.882c-24 0-33.82-39.471-64-48-30.667-8.667-53.773 33.387-60.667 24-3.917-5.333 21.164-72-11.333-72-28.944 0-42.662-34.911-42.662-34.911l-3.628-9.067c-26.352 40.226-41.71 88.295-41.71 139.98 0 2.837 0.227 5.618 0.318 8.433 28.085 29.436 105.06 109.22 107.02 111.57 2.5 3 66.667-1 66.667-1s41.5-16 47.5-18.899c1.828-0.883 5.005-8.914 8.536-19.632l-1.874-0.469z" fill="#674447"/>
		
			<path d="m320 328c-2.078 0-4.164-0.883-5.68-2.32-1.445-1.52-2.32-3.602-2.32-5.68 0-2.082 0.875-4.16 2.32-5.68 2.961-2.961 8.32-2.961 11.359 0 1.438 1.52 2.32 3.598 2.32 5.68 0 2.078-0.883 4.16-2.32 5.68-1.523 1.437-3.601 2.32-5.679 2.32z" fill="#fff"/>
		
			<path d="m349 335.95c-2.078 0-4.164-0.883-5.68-2.32-1.445-1.52-2.32-3.602-2.32-5.68 0-2.082 0.875-4.16 2.32-5.68 2.961-2.961 8.32-2.961 11.359 0 1.438 1.52 2.32 3.598 2.32 5.68 0 2.078-0.883 4.16-2.32 5.68-1.523 1.437-3.601 2.32-5.679 2.32z" fill="#fff"/>
		
			<path d="m198 331.95c-2.078 0-4.164-0.883-5.68-2.32-1.445-1.52-2.32-3.602-2.32-5.68 0-2.082 0.875-4.16 2.32-5.68 2.961-2.961 8.32-2.961 11.359 0 1.438 1.52 2.32 3.598 2.32 5.68 0 2.078-0.883 4.16-2.32 5.68-1.523 1.437-3.601 2.32-5.679 2.32z" fill="#fff"/>
		
			<path d="m360 359.95c-2.078 0-4.164-0.883-5.68-2.32-1.445-1.52-2.32-3.602-2.32-5.68 0-2.082 0.875-4.16 2.32-5.68 2.961-2.961 8.32-2.961 11.359 0 1.438 1.52 2.32 3.598 2.32 5.68 0 2.078-0.883 4.16-2.32 5.68-1.523 1.437-3.601 2.32-5.679 2.32z" fill="#fff"/>
		
			<path d="m170.5 347.85c-2.078 0-4.164-0.883-5.68-2.32-1.445-1.52-2.32-3.602-2.32-5.68 0-2.082 0.875-4.16 2.32-5.68 2.961-2.961 8.32-2.961 11.359 0 1.438 1.52 2.32 3.598 2.32 5.68 0 2.078-0.883 4.16-2.32 5.68-1.523 1.437-3.601 2.32-5.679 2.32z" fill="#fff"/>
	
		<path d="m88 88c4.831 2.944 10.246 29.825 12.5 24.946 14.528-31.446 36.598-7.562 67.5-32.946 14-11.5 33.667 9.5 40.667 18.5 11.268 14.488-5.167 72 21.369 114.21l-2.238-133.22c0-18.492-23.131-8.825-43.798-23.492-29.263-20.767-77.064 13.486-111.49 21.568-2.683 2.758-5.296 5.585-7.854 8.461 12.669 1.159 18.34-1.076 23.34 1.971z" fill="#86646A"/>
	
		<polygon points="284.2 79.491 227.8 79.491 218.67 352 293.33 352" fill="#DDF9FF"/>
	
		<path d="m344 376c0-17.673-14.327-32-32-32-2.472 0-4.852 0.341-7.163 0.872-6.841-5.467-15.399-8.872-24.837-8.872-7.323 0-14.096 2.112-20 5.548-5.904-3.436-12.677-5.548-20-5.548-14.826 0-27.62 8.159-34.529 20.142-3.842-2.611-8.476-4.142-13.471-4.142-13.255 0-24 10.745-24 24" fill="#fff"/>
	
		<path d="m208.67 408s-2.667-21.333-30.167-23.589c-29.243-2.399-26.5-28.512-53.833-48.512-8.73-6.387-30.555-15.87-44.667-39.899-18.5-31.5-48.5-28-79.163-59.797-0.501 6.541-0.837 13.128-0.837 19.797 0 56.923 18.603 109.49 50.027 152h158.64z" fill="#86646A"/>
	
		<path d="m111.75 330.52c1.134-0.277 2.098-0.59 3.107-0.894-10.408-6.493-24.631-16.217-34.857-33.629-17.742-30.209-46.063-28.315-75.4-56.148l-4.255 4.342c-0.201 3.913-0.345 7.842-0.345 11.806 0 15.179 1.415 30.015 3.95 44.466 18.01-0.616 38.507-5.421 43.8-0.716 6.75 6 35.25 37.796 64 30.773z" fill="#674447"/>
	
		<path d="m418.67 384.41c-6.492 11.406-18.435 26.922-39.517 26.922-59 0-83.15 36.667-83.15 36.667h129.24c37.604-33.173 65.415-77.178 78.464-127.18-51.477 5.55-68.018 33.694-85.034 63.589z" fill="#86646A"/>
	
		<path d="m496.96 342.3c-8.766-1.488-20.656-2.404-27.625-1.63-5.244 0.583-17.996 6.511-30.695 13.002-7.703 9.367-13.818 19.932-19.973 30.742-3.955 6.949-9.973 15.386-18.809 20.948l-7e-3 0.041c17.015 12.644 48.716-13.882 75.725-18.003 8.525-14.2 15.714-29.28 21.384-45.1z" fill="#674447"/>
	
		<path d="m115.02 329.74c3e-3 -1e-3 7e-3 -2e-3 0.01-3e-3 -10.422-6.493-24.748-16.234-35.028-33.738-18.5-31.5-48.5-28-79.163-59.797-0.501 6.541-0.837 13.128-0.837 19.797 0 8.189 0.491 16.256 1.244 24.249 15.499 9.707 32.791 2.438 48.756 11.751 16 9.333 34.702 44.149 65.018 37.741z" fill="#52C883"/>
	
		<path d="m144.92 392.48c-22.414 0-40.583 13.214-40.583 29.515h81.166c0-16.301-18.17-29.515-40.583-29.515z" fill="#674447"/>
	
		<path d="m259.53 427.5c-15.568 0-28.188 9.178-28.188 20.5h56.375c0-11.322-12.62-20.5-28.187-20.5z" fill="#86646A"/>
	
		<path d="m231.34 434.78c-10.037 0-18.174 5.918-18.174 13.217h36.348c0-7.3-8.136-13.217-18.174-13.217z" fill="#86646A"/>
	
		<path d="m95.417 399.42c-13.025 0-23.583 7.679-23.583 17.151h47.166c0-9.472-10.558-17.151-23.583-17.151z" fill="#674447"/>
	
		<path d="m389.95 433.24c-28.378 0-51.383 16.731-51.383 37.37h56.773c11.534-7.508 22.393-15.93 32.541-25.146-9.396-7.493-22.886-12.224-37.931-12.224z" fill="#674447"/>
	
		<path d="m418.67 384.41c-3.961 6.959-9.988 15.413-18.846 20.975 0.012 3e-3 0.019 0.01 0.03 0.014 23.356 6.357 50.005-40.643 85.608-36.164 7.599-15.352 13.829-31.503 18.242-48.414-51.476 5.55-68.016 33.694-85.034 63.589z" fill="#52C883"/>
	
		<path d="m284.2 79.491h-56.404l-6.027 179.88c17.563-12.802 19.563-126.7 28.896-119.37 9.333 7.333 4 57.821 12 57.821s8.236-77.163 23.451-61.159l-1.916-57.171z" fill="#AEE1F9"/>
</svg>